<?xml version="1.0" standalone="no"?>
<!DOCTYPE svg PUBLIC "-//W3C//DTD SVG 20010904//EN"
 "http://www.w3.org/TR/2001/REC-SVG-20010904/DTD/svg10.dtd">
<svg version="1.0" xmlns="http://www.w3.org/2000/svg"
 width="414.000000pt" height="50.000000pt" viewBox="0 0 414.000000 50.000000"
 preserveAspectRatio="xMidYMid meet">

<g transform="translate(0.000000,50.000000) scale(0.100000,-0.100000)"
fill="#000000" stroke="none">
<path d="M1243 491 c-17 -5 -48 -18 -68 -30 -45 -26 -45 -26 -45 4 0 24 -3 25
-60 25 l-60 0 0 -240 0 -240 65 0 65 0 0 89 0 90 46 -20 c98 -44 261 -17 319
53 45 53 45 143 0 197 -48 57 -179 93 -262 72z m125 -98 c54 -40 54 -106 0
-146 -39 -29 -124 -34 -173 -11 -76 36 -79 129 -4 167 46 24 139 18 177 -10z"/>
<path d="M1788 487 c-25 -8 -58 -21 -72 -30 -26 -17 -26 -17 -26 8 0 24 -2 25
-65 25 l-65 0 0 -240 0 -240 65 0 65 0 0 91 c0 50 3 89 8 87 84 -44 189 -52
272 -23 126 45 166 177 78 262 -61 59 -171 84 -260 60z m142 -102 c23 -22 30
-38 30 -64 -1 -45 -17 -66 -63 -86 -122 -51 -255 42 -191 134 25 35 71 52 137
48 47 -3 62 -8 87 -32z"/>
<path d="M2596 484 c-15 -9 -25 -11 -21 -4 5 8 -12 10 -61 8 l-68 -3 -66 -92
c-36 -51 -68 -93 -71 -93 -4 0 -35 43 -69 95 l-63 95 -69 0 -69 0 19 -27 c10
-16 56 -81 101 -146 l82 -118 -65 -92 -66 -92 56 -3 c31 -2 62 -1 69 2 6 2 67
82 135 178 173 242 155 222 156 172 2 -79 40 -112 161 -140 37 -8 78 -22 91
-30 48 -31 13 -84 -57 -84 -50 0 -78 12 -108 47 l-21 26 -46 -27 -46 -27 17
-31 c42 -72 160 -113 261 -88 122 29 178 148 111 234 -28 36 -62 52 -139 66
-76 15 -110 33 -110 60 0 45 96 56 134 15 l24 -26 38 23 c22 12 41 23 43 25
11 8 -22 55 -51 73 -42 26 -187 28 -232 4z"/>
<path d="M3580 250 l0 -250 55 0 55 0 2 213 3 212 119 -212 119 -213 93 0 94
0 0 251 0 250 -52 -3 -53 -3 -5 -212 -5 -211 -120 214 -120 214 -92 0 -93 0 0
-250z"/>
<path d="M2930 245 l0 -245 50 0 50 0 0 74 0 74 46 37 c43 36 46 37 59 19 7
-11 42 -59 77 -109 l64 -90 142 -3 142 -3 0 171 0 170 -80 0 -80 0 -2 -167 -3
-168 -104 144 -103 143 98 99 99 99 -65 0 -65 0 -112 -112 -113 -113 0 113 0
112 -50 0 -50 0 0 -245z"/>
<path d="M3400 445 l0 -45 85 0 85 0 0 45 0 45 -85 0 -85 0 0 -45z"/>
<path d="M10 245 l0 -235 60 0 60 0 0 95 0 95 170 0 170 0 0 -95 0 -95 60 0
c53 0 60 2 60 20 0 25 5 25 37 1 56 -45 168 -35 222 20 l31 31 0 -36 0 -36 55
0 55 0 0 171 c0 197 -7 224 -73 267 -37 25 -49 27 -138 27 -94 0 -99 -1 -143
-32 l-46 -33 0 35 0 35 -60 0 -60 0 0 -100 0 -100 -167 2 -168 3 -3 98 -3 97
-59 0 -60 0 0 -235z m819 127 c23 -11 38 -27 43 -47 12 -46 5 -55 -39 -44 -71
16 -146 11 -196 -15 l-47 -23 0 43 c0 48 0 48 47 35 28 -8 33 -7 38 11 8 25
62 58 95 58 14 0 41 -8 59 -18z m11 -175 c26 -9 34 -17 32 -32 -9 -52 -82 -86
-138 -65 -33 13 -44 26 -44 57 0 47 74 66 150 40z"/>
</g>
</svg>
