<?xml version="1.0" standalone="no"?>
<!DOCTYPE svg PUBLIC "-//W3C//DTD SVG 20010904//EN"
 "http://www.w3.org/TR/2001/REC-SVG-20010904/DTD/svg10.dtd">
<svg version="1.0" xmlns="http://www.w3.org/2000/svg"
 width="411.000000pt" height="47.000000pt" viewBox="0 0 411.000000 47.000000"
 preserveAspectRatio="xMidYMid meet">

<g transform="translate(0.000000,47.000000) scale(0.100000,-0.100000)"
fill="#000000" stroke="none">
<path d="M10 235 l0 -235 60 0 60 0 0 95 0 95 170 0 170 0 0 -95 0 -95 60 0
c53 0 60 2 60 20 0 25 5 25 37 0 20 -16 41 -20 97 -20 74 0 109 14 141 56 13
18 14 16 15 -18 l0 -38 55 0 55 0 0 171 c0 197 -7 224 -73 267 -37 25 -49 27
-138 27 -94 0 -99 -1 -143 -32 l-46 -33 0 35 0 35 -60 0 -60 0 0 -100 0 -100
-167 2 -168 3 -3 98 -3 97 -59 0 -60 0 0 -235z m819 127 c23 -11 38 -27 43
-47 12 -46 5 -55 -39 -44 -71 16 -146 11 -196 -15 l-47 -23 0 43 c0 48 0 48
47 35 28 -8 33 -7 38 11 8 25 62 58 95 58 14 0 41 -8 59 -18z m11 -175 c26 -9
34 -17 32 -32 -9 -52 -82 -86 -138 -65 -33 13 -44 26 -44 57 0 47 74 66 150
40z"/>
<path d="M1010 235 l0 -235 65 0 65 0 0 89 0 90 46 -20 c70 -32 181 -28 253 8
66 34 92 66 98 125 7 58 -15 108 -63 144 -35 27 -44 29 -151 32 -101 3 -117 1
-149 -17 -43 -26 -44 -26 -44 -1 0 18 -7 20 -60 20 l-60 0 0 -235z m358 148
c54 -40 54 -106 0 -146 -39 -29 -124 -34 -173 -11 -76 36 -79 129 -4 167 46
24 139 18 177 -10z"/>
<path d="M1560 235 l0 -235 65 0 65 0 0 91 c0 50 3 89 8 87 84 -44 189 -52
272 -23 126 45 166 178 78 262 -51 48 -69 53 -185 53 -90 0 -113 -3 -140 -20
-33 -20 -33 -20 -33 0 0 18 -7 20 -65 20 l-65 0 0 -235z m370 140 c23 -22 30
-38 30 -64 -1 -45 -17 -66 -63 -86 -122 -51 -255 42 -191 134 25 35 71 52 137
48 47 -3 62 -8 87 -32z"/>
<path d="M2056 458 c4 -7 47 -71 96 -141 l89 -128 -66 -92 -65 -92 56 -3 c31
-2 62 -1 69 2 6 2 67 82 135 178 173 242 155 222 156 172 2 -79 40 -112 161
-140 37 -8 78 -22 91 -30 48 -31 13 -84 -57 -84 -50 0 -78 12 -108 47 l-21 26
-46 -27 -46 -27 17 -31 c10 -17 38 -44 63 -60 43 -28 49 -29 141 -26 88 3 99
5 133 32 87 66 84 181 -6 236 -17 10 -60 24 -97 30 -77 14 -111 33 -111 60 0
45 96 56 134 15 l23 -25 42 23 c47 25 49 34 20 71 l-20 26 -199 0 -199 -1 -63
-89 c-35 -49 -66 -90 -69 -90 -4 0 -33 40 -65 90 l-59 90 -68 0 c-52 0 -66 -3
-61 -12z"/>
<path d="M2930 235 l0 -235 50 0 50 0 0 69 0 69 46 37 c26 21 49 34 52 28 4
-5 38 -53 75 -106 l68 -97 61 0 c47 0 58 3 51 13 -6 6 -52 70 -103 141 l-93
128 94 94 94 94 -65 0 -65 0 -107 -107 -108 -108 0 108 0 107 -50 0 -50 0 0
-235z"/>
<path d="M3400 430 l0 -40 85 0 85 0 0 40 0 40 -85 0 -85 0 0 -40z"/>
<path d="M3580 235 l0 -235 55 0 55 0 2 208 3 207 115 -207 115 -207 93 -1 92
0 0 235 0 235 -50 0 -50 0 -2 -204 -3 -204 -114 204 -114 204 -99 0 -98 0 0
-235z"/>
<path d="M3400 165 l0 -165 80 0 80 0 0 165 0 165 -80 0 -80 0 0 -165z"/>
</g>
</svg>
