<?xml version="1.0" standalone="no"?>
<!DOCTYPE svg PUBLIC "-//W3C//DTD SVG 20010904//EN"
 "http://www.w3.org/TR/2001/REC-SVG-20010904/DTD/svg10.dtd">
<svg version="1.0" xmlns="http://www.w3.org/2000/svg"
 width="424.000000pt" height="427.000000pt" viewBox="0 0 424.000000 427.000000"
 preserveAspectRatio="xMidYMid meet">

<g transform="translate(0.000000,427.000000) scale(0.100000,-0.100000)"
fill="#000000" stroke="none">
<path d="M395 4154 c-23 -21 -61 -41 -95 -50 -30 -9 -69 -20 -86 -25 -39 -12
-128 -68 -120 -76 3 -3 16 1 28 9 33 21 83 37 167 53 83 16 133 48 149 95 14
38 6 37 -43 -6z"/>
<path d="M1482 4087 c-11 -42 -27 -64 -66 -91 -19 -13 -18 -14 11 -29 32 -17
47 -46 58 -112 8 -45 18 -34 30 30 3 22 18 54 31 72 24 31 24 32 5 42 -20 11
-41 60 -41 97 0 40 -17 35 -28 -9z m45 -89 c12 -14 14 -21 6 -26 -7 -4 -19
-23 -27 -42 -8 -19 -15 -27 -16 -18 0 9 -12 31 -27 48 -23 28 -24 33 -11 41 8
5 21 23 29 41 l13 32 7 -28 c4 -16 16 -37 26 -48z"/>
<path d="M3053 4118 c-29 -5 -53 -13 -53 -17 0 -3 33 -7 73 -7 78 0 159 -17
222 -45 52 -24 75 -24 75 -1 0 27 -42 62 -87 73 -48 11 -162 10 -230 -3z"/>
<path d="M3592 4118 c-7 -7 -12 -16 -12 -21 0 -5 -20 -29 -45 -54 -25 -24 -45
-48 -45 -52 0 -4 -9 -16 -20 -26 -27 -24 -25 -37 7 -69 22 -22 35 -27 66 -24
39 3 39 2 42 -32 3 -29 16 -47 84 -110 45 -41 81 -81 81 -87 0 -7 -33 -35 -72
-63 -169 -117 -225 -176 -247 -255 -14 -53 1 -107 37 -136 21 -16 37 -20 73
-17 73 7 104 36 238 221 41 56 75 79 133 91 36 8 83 49 135 119 59 81 59 116
-2 190 -82 101 -242 216 -301 217 -23 0 -48 23 -38 33 13 13 -7 53 -35 70 -34
20 -62 22 -79 5z m98 -55 c0 -17 -138 -173 -153 -173 -17 0 -57 29 -57 40 0 9
17 29 98 116 12 14 22 29 22 34 0 5 7 16 16 24 14 14 18 14 45 -6 16 -12 29
-28 29 -35z m126 -99 c21 -10 85 -64 141 -119 92 -91 103 -105 103 -137 0 -57
-109 -189 -168 -202 -66 -16 -84 -31 -158 -132 -98 -135 -143 -174 -201 -174
-35 0 -46 5 -60 26 -22 35 -20 96 6 138 28 45 114 124 191 175 87 58 110 80
110 105 0 13 -31 50 -85 101 -59 56 -85 88 -85 104 0 14 22 48 55 86 62 70 64
70 151 29z"/>
<path d="M392 4074 c-23 -14 -77 -32 -120 -41 -92 -18 -153 -50 -181 -97 -29
-46 -26 -54 6 -15 34 40 91 65 168 74 83 9 141 32 165 65 34 48 25 52 -38 14z"/>
<path d="M525 4042 c-49 -27 -143 -78 -207 -115 -65 -36 -127 -68 -138 -72
-34 -11 -59 -52 -50 -83 23 -80 171 -378 257 -519 56 -93 70 -97 163 -49 65
34 72 36 97 22 40 -20 212 -72 320 -96 114 -25 164 -25 192 -2 21 17 153 409
201 597 31 119 26 139 -43 170 -118 52 -451 120 -485 99 -14 -9 -29 -43 -49
-114 -3 -8 -30 35 -61 95 -48 92 -61 110 -82 113 -15 1 -62 -18 -115 -46z
m227 -182 c55 -107 122 -238 149 -290 l49 -95 -36 -30 c-33 -28 -339 -200
-413 -232 -30 -13 -35 -12 -52 3 -31 28 -250 448 -284 545 -17 47 -45 25 240
183 116 64 218 115 229 114 13 -2 48 -60 118 -198z m305 75 c206 -49 273 -72
282 -98 5 -13 2 -47 -6 -82 -16 -70 -158 -534 -179 -584 l-14 -34 -63 6 c-70
7 -260 55 -356 90 l-64 24 109 62 c154 88 204 126 204 155 0 13 -39 99 -86
190 l-86 167 12 52 c19 77 26 87 65 87 19 0 101 -16 182 -35z"/>
<path d="M2320 4073 c-19 -2 -91 -18 -160 -34 -69 -17 -189 -41 -268 -55 -79
-13 -164 -33 -190 -44 -123 -54 -185 -181 -132 -268 19 -31 33 -40 94 -58 21
-7 32 -19 42 -49 7 -22 31 -57 53 -77 37 -35 45 -38 100 -38 74 0 99 9 183 67
87 59 129 65 232 29 124 -42 197 -34 258 31 36 38 50 78 47 139 -2 40 2 57 19
79 64 82 12 212 -104 261 -37 16 -122 24 -174 17z m158 -39 c43 -18 88 -58
108 -96 19 -36 18 -98 -2 -127 l-16 -23 -30 36 c-63 76 -155 102 -308 87 -58
-6 -148 -15 -200 -20 -196 -19 -305 -95 -334 -233 -8 -35 -31 -36 -77 -5 -67
45 -62 135 12 207 50 49 115 73 249 95 58 9 168 32 245 50 77 18 149 35 160
38 47 11 158 6 193 -9z m-61 -160 c96 -32 157 -126 134 -204 -15 -52 -63 -106
-105 -120 -37 -12 -99 -2 -191 30 -79 29 -127 21 -208 -33 -85 -58 -109 -67
-175 -67 -49 0 -62 4 -89 29 -51 46 -67 95 -53 160 10 43 22 64 59 101 66 66
133 89 291 101 69 5 134 11 145 13 54 9 149 4 192 -10z"/>
<path d="M2408 3712 c-23 -14 -31 -15 -48 -4 -28 17 -30 16 -17 -18 7 -20 14
-25 19 -17 6 9 12 9 28 -1 17 -10 20 -10 20 4 0 10 5 14 15 10 8 -3 15 -1 15
3 0 5 3 16 6 25 8 20 -3 19 -38 -2z"/>
<path d="M1939 3637 c-13 -17 -20 -19 -46 -10 -29 10 -30 10 -30 -13 0 -19 3
-22 12 -14 9 8 17 6 29 -5 10 -10 16 -12 16 -5 0 7 6 10 14 7 10 -4 17 4 21
24 9 38 4 42 -16 16z"/>
<path d="M3054 4041 c4 -6 24 -11 44 -11 47 0 107 -28 155 -70 42 -36 56 -34
41 8 -13 40 -88 74 -176 80 -52 4 -69 2 -64 -7z"/>
<path d="M2923 3981 c-37 -23 -48 -55 -39 -109 4 -29 -1 -50 -25 -97 -29 -57
-31 -64 -25 -139 l7 -79 -114 -116 c-121 -124 -150 -170 -149 -235 1 -52 36
-86 88 -86 77 0 121 43 205 200 33 63 70 125 82 138 11 12 51 31 88 42 53 16
75 29 108 65 22 24 41 49 41 55 0 5 8 9 18 8 67 -5 112 32 112 94 0 75 -84
123 -152 87 -27 -15 -49 -71 -42 -109 11 -52 -56 -110 -142 -125 -37 -6 -44
-3 -58 17 -22 31 -21 123 2 168 14 28 24 36 51 38 44 4 76 26 91 62 36 86 -67
170 -147 121z m103 -24 c68 -58 -8 -170 -83 -122 -37 24 -48 58 -33 95 22 52
73 64 116 27z m254 -177 c43 -43 6 -130 -55 -130 -33 0 -75 41 -75 73 0 13 9
36 21 51 26 33 79 36 109 6z m-618 -545 c-3 -29 -8 -45 -16 -42 -16 5 -20 55
-5 73 19 24 24 16 21 -31z"/>
<path d="M3342 3535 l-40 -36 -15 22 c-23 31 -66 28 -94 -7 -13 -16 -23 -32
-23 -36 0 -3 -14 -43 -31 -89 -22 -56 -44 -94 -70 -120 -22 -22 -35 -39 -30
-39 5 0 45 12 88 28 163 58 290 152 315 233 23 80 -33 105 -100 44z m78 -6 c0
-58 -114 -169 -234 -229 -45 -22 -85 -40 -90 -40 -4 0 2 14 14 31 12 16 36 65
52 107 28 74 60 122 82 122 6 0 20 -12 32 -27 l22 -27 41 37 c39 36 81 49 81
26z"/>
<path d="M2410 3416 c-14 -16 -36 -26 -59 -28 -30 -3 -36 -7 -39 -29 -4 -30
28 -73 70 -95 27 -14 31 -14 48 1 57 52 67 175 15 175 -6 0 -22 -11 -35 -24z
m20 -106 c-20 -39 -22 -41 -43 -27 -27 17 -54 63 -44 73 4 4 18 2 32 -4 22
-10 27 -8 47 21 l23 32 3 -27 c2 -14 -6 -45 -18 -68z"/>
<path d="M3997 3414 c-4 -4 -7 -17 -7 -28 0 -30 -35 -83 -59 -91 -28 -9 -26
-19 5 -33 28 -13 54 -66 54 -111 0 -47 17 -46 25 1 8 50 20 74 48 105 l20 23
-26 20 c-16 13 -29 35 -33 58 -8 45 -18 65 -27 56z m13 -78 c0 -7 9 -25 20
-39 14 -17 17 -28 9 -33 -6 -3 -17 -20 -24 -38 l-13 -31 -10 26 c-6 14 -17 33
-26 42 -15 14 -14 19 6 51 24 37 38 45 38 22z"/>
<path d="M136 3335 c-8 -38 -50 -95 -72 -95 -23 0 -15 -14 19 -35 26 -17 35
-31 47 -83 16 -66 30 -81 30 -32 0 35 23 96 46 121 14 15 13 19 -10 42 -15 15
-27 42 -31 71 -9 55 -20 59 -29 11z m45 -95 c6 -4 0 -24 -16 -51 -13 -24 -25
-36 -25 -27 0 9 -11 30 -25 46 -24 29 -24 30 -5 47 11 10 22 27 26 38 6 18 8
16 21 -14 7 -18 18 -36 24 -39z"/>
<path d="M1947 3330 c-85 -22 -154 -71 -190 -139 -32 -58 -44 -128 -29 -170
10 -29 9 -31 -31 -54 -154 -91 -276 -278 -299 -460 -20 -155 -18 -257 4 -305
22 -46 60 -72 106 -72 36 0 44 -22 46 -120 2 -51 8 -76 29 -114 15 -27 27 -57
27 -68 0 -10 -25 -68 -55 -128 -75 -146 -96 -210 -102 -307 -10 -140 29 -205
126 -209 25 -1 87 -11 138 -22 198 -43 443 -52 597 -21 28 6 72 12 98 14 89 5
130 58 131 170 1 91 -31 197 -100 334 -35 68 -63 131 -63 140 0 9 14 43 31 76
20 39 29 72 28 95 -2 19 6 63 16 98 15 50 23 62 39 62 34 0 81 35 100 74 14
29 17 70 19 223 2 204 -6 249 -60 357 -34 66 -134 164 -206 201 -42 22 -55 34
-50 45 27 62 8 163 -43 219 -63 70 -202 107 -307 81z m113 -37 c47 -27 70 -81
70 -162 l0 -71 -87 0 c-83 -1 -127 -6 -197 -25 l-29 -8 5 49 c9 92 90 218 146
227 53 8 64 7 92 -10z m165 -57 c47 -48 59 -81 53 -156 -2 -37 -7 -46 -24 -48
-19 -3 -22 3 -27 73 -7 80 -23 130 -51 158 -10 9 -12 17 -6 17 6 0 30 -20 55
-44z m-40 -221 c249 -53 407 -255 405 -519 l-1 -61 -26 50 c-57 111 -202 260
-307 316 -26 13 -47 33 -53 50 -16 42 -68 69 -133 69 -192 0 -495 -177 -621
-363 -23 -34 -39 -54 -36 -45 3 9 11 36 17 60 45 165 204 345 366 413 107 45
261 57 389 30z m-36 -146 c30 -18 33 -24 28 -55 -16 -95 -201 -239 -514 -400
-116 -59 -126 -63 -146 -49 -25 17 -60 19 -88 5 -16 -9 -19 -7 -19 10 0 11 8
41 18 68 94 248 559 520 721 421z m236 -204 c97 -96 170 -207 195 -294 8 -27
7 -28 -31 -28 -21 0 -46 -6 -54 -13 -28 -23 -300 146 -397 247 l-38 39 56 54
c30 30 64 72 75 92 l19 38 53 -32 c28 -17 84 -64 122 -103z m-120 -257 c84
-54 169 -98 190 -98 19 0 19 -32 0 -143 -17 -95 -32 -137 -51 -137 -9 0 -7 14
7 50 11 28 19 75 19 108 0 66 -15 89 -80 122 -22 11 -72 49 -112 85 -39 36
-91 74 -114 86 -73 35 -164 36 -260 3 -11 -4 13 13 51 36 39 24 83 53 98 65
l28 21 77 -76 c42 -43 109 -98 147 -122z m-149 54 c22 -11 70 -47 106 -80 35
-32 90 -73 121 -91 32 -18 62 -42 68 -53 28 -52 -29 -238 -72 -238 -11 0 -48
-24 -83 -54 -90 -76 -173 -92 -319 -61 -88 18 -162 53 -211 100 -21 20 -49 40
-61 45 -36 14 -68 92 -73 180 l-4 77 53 25 c30 14 74 42 98 62 56 47 120 84
174 102 56 19 152 12 203 -14z m-326 -22 c-92 -74 -144 -110 -175 -120 -25 -8
-37 -19 -42 -38 -9 -36 12 -174 33 -214 16 -32 16 -32 -1 -18 -33 27 -55 95
-61 187 l-7 90 134 65 c74 37 136 67 139 67 3 0 -6 -8 -20 -19z m-284 -94 c16
-12 19 -27 19 -100 0 -60 -4 -86 -12 -86 -81 0 -135 119 -78 175 28 29 43 31
71 11z m1074 -41 c30 -36 -31 -145 -81 -145 -18 0 -19 5 -13 73 4 39 12 75 18
79 19 13 63 9 76 -7z m-952 -318 c12 -26 30 -47 38 -47 12 0 13 4 4 21 -6 11
-10 28 -8 37 3 13 17 5 61 -37 64 -60 72 -92 37 -141 -25 -35 -36 -93 -50
-255 -22 -263 -59 -355 -143 -355 -40 0 -74 35 -87 90 -22 91 7 203 101 392
33 65 59 124 59 133 0 8 -16 44 -35 81 -33 62 -44 112 -28 128 13 13 27 -1 51
-47z m786 -30 c0 -31 -8 -57 -26 -84 -46 -70 -46 -73 26 -216 68 -137 106
-252 106 -322 0 -135 -87 -202 -159 -120 -42 48 -59 115 -77 300 -19 207 -22
222 -50 272 -36 63 -32 83 31 142 57 54 82 60 65 15 -15 -39 -12 -49 10 -29
11 10 20 27 20 38 0 24 29 59 44 54 6 -2 11 -25 10 -50z m-527 -78 c64 -18 97
-21 190 -17 78 3 110 1 103 -6 -6 -6 -55 -12 -110 -14 -108 -5 -239 17 -260
44 -16 18 -15 18 77 -7z m-51 -38 c16 -5 41 -12 56 -15 25 -6 26 -8 17 -36
-16 -44 -65 -87 -116 -99 -25 -7 -47 -11 -48 -9 -9 10 17 113 35 138 12 17 23
30 24 30 2 0 16 -4 32 -9z m378 -53 c21 -37 46 -148 34 -148 -17 0 -108 36
-130 52 -23 16 -68 103 -57 112 2 1 31 7 64 13 33 6 61 11 62 12 1 0 13 -18
27 -41z m-165 -23 c19 -76 70 -118 173 -139 28 -6 28 -10 41 -186 2 -21 -4
-26 -53 -37 -106 -26 -489 8 -483 43 1 6 5 56 9 112 6 96 8 102 29 102 34 0
126 52 141 80 8 14 18 36 23 50 8 23 13 25 59 22 50 -4 50 -4 61 -47z m-207
-384 c124 -29 230 -35 318 -18 41 9 82 18 92 22 13 5 17 -2 23 -37 8 -50 39
-125 62 -150 9 -10 14 -20 12 -22 -2 -3 -60 -10 -129 -17 -178 -17 -421 -3
-552 32 l-37 10 20 20 c28 28 56 93 64 151 6 42 9 46 26 38 10 -6 55 -19 101
-29z"/>
<path d="M2055 2858 c-43 -25 -49 -73 -10 -88 60 -23 113 43 65 82 -26 21 -28
21 -55 6z m49 -27 c15 -24 -20 -56 -49 -45 -15 6 -20 35 -8 47 10 10 51 8 57
-2z"/>
<path d="M1740 2283 c-39 -27 -49 -45 -50 -89 0 -48 29 -81 82 -93 96 -21 165
58 126 144 -23 52 -109 72 -158 38z m127 -25 c12 -12 25 -30 29 -40 18 -56
-58 -120 -118 -99 -49 17 -68 40 -68 81 0 36 24 69 60 83 25 10 73 -2 97 -25z"/>
<path d="M1740 2202 c0 -33 58 -42 85 -12 21 23 16 25 -20 8 -19 -9 -28 -9
-37 0 -14 14 -28 16 -28 4z"/>
<path d="M2184 2246 c-70 -70 -23 -166 82 -166 47 0 104 54 104 98 0 40 -33
79 -78 92 -57 16 -71 13 -108 -24z m125 -1 c48 -24 55 -77 17 -122 -33 -38
-95 -39 -133 -1 -74 75 19 174 116 123z"/>
<path d="M2231 2175 c5 -26 60 -33 79 -11 11 14 9 15 -19 10 -20 -4 -37 -2
-47 7 -14 12 -16 11 -13 -6z"/>
<path d="M1963 2059 c-12 -4 -27 -18 -33 -30 -10 -18 -9 -26 7 -48 37 -50 134
-62 191 -25 32 21 27 74 -8 90 -34 16 -130 24 -157 13z m162 -40 l20 -20 -28
-25 c-69 -59 -225 2 -164 65 19 21 147 6 172 -20z"/>
<path d="M2007 1992 c14 -12 31 -18 43 -15 32 8 34 22 3 21 -15 -1 -37 2 -48
6 -18 7 -18 6 2 -12z"/>
<path d="M1539 3281 c-45 -46 -39 -62 16 -37 46 21 59 48 29 60 -10 4 -27 -5
-45 -23z"/>
<path d="M1402 3201 c-7 -19 -25 -37 -50 -50 -43 -22 -58 -51 -107 -201 -21
-66 -37 -95 -70 -130 -129 -136 -166 -202 -216 -378 -70 -252 -69 -326 6 -369
87 -49 125 -19 224 181 107 219 115 244 115 381 1 71 -4 134 -11 155 -11 31
-9 47 22 150 27 90 40 120 62 138 18 14 35 20 48 16 54 -16 60 -12 60 43 -1
83 -61 128 -83 64z m65 -60 l6 -41 -31 11 c-24 8 -37 7 -61 -5 -37 -20 -50
-43 -85 -161 -30 -99 -35 -108 -53 -97 -9 6 -3 36 26 119 50 143 55 150 99
171 20 9 43 30 50 46 12 25 16 26 29 13 8 -8 17 -33 20 -56z m-213 -326 c20
-20 31 -92 29 -190 -1 -87 -21 -157 -88 -302 l-38 -83 -47 0 c-31 0 -64 9
-101 28 -53 26 -54 28 -52 67 4 50 57 224 89 286 25 51 137 194 157 202 22 9
35 7 51 -8z m-279 -652 c5 -27 4 -32 -8 -27 -20 7 -29 32 -21 56 8 25 20 13
29 -29z"/>
<path d="M1110 2612 c0 -13 55 -32 89 -31 26 1 26 1 -5 14 -48 21 -84 28 -84
17z"/>
<path d="M1090 2551 c0 -16 48 -33 79 -29 24 4 24 4 -9 15 -19 6 -43 14 -52
18 -11 4 -18 3 -18 -4z"/>
<path d="M1080 2481 c0 -11 40 -31 61 -31 16 0 10 17 -8 23 -10 2 -26 8 -35
12 -11 4 -18 3 -18 -4z"/>
<path d="M2428 3190 c-4 -8 -12 -32 -18 -52 -6 -20 -20 -48 -31 -62 -29 -37
-6 -32 25 5 29 34 40 66 34 100 -3 17 -6 20 -10 9z"/>
<path d="M1540 3165 c0 -2 10 -15 23 -28 12 -14 29 -34 37 -46 10 -15 19 -18
29 -12 22 14 5 58 -29 76 -28 14 -60 20 -60 10z"/>
<path d="M2983 3106 c-25 -12 -33 -21 -33 -42 0 -24 2 -25 28 -18 28 8 119 7
134 -2 4 -3 8 -18 8 -34 0 -20 -6 -31 -20 -35 -11 -3 -20 -15 -20 -25 0 -11
-8 -27 -19 -37 -28 -27 -41 -58 -41 -97 0 -31 -4 -38 -33 -50 -46 -19 -83 -67
-96 -124 -5 -26 -18 -126 -27 -222 -18 -172 -18 -176 2 -215 15 -31 32 -47 79
-70 57 -28 67 -30 181 -30 135 0 153 7 180 72 30 70 45 443 21 513 -8 24 -24
42 -54 58 -42 23 -42 24 -37 67 5 30 1 53 -10 76 -9 17 -16 40 -16 50 0 10 -8
23 -18 28 -25 13 -18 67 9 74 24 7 24 29 0 52 -28 24 -173 32 -218 11z m176
-15 c14 -4 26 -12 28 -18 3 -8 -31 -10 -112 -9 -112 1 -115 2 -94 19 16 13 38
17 88 16 36 -1 77 -4 90 -8z m1 -81 c0 -21 -5 -30 -16 -30 -11 0 -14 5 -10 16
3 9 6 22 6 30 0 8 5 14 10 14 6 0 10 -13 10 -30z m30 -175 c0 -13 -4 -27 -10
-30 -6 -4 -10 8 -10 30 0 22 4 34 10 30 6 -3 10 -17 10 -30z m-86 -93 c27 -5
65 -6 85 -1 31 7 41 4 71 -20 49 -39 56 -91 41 -306 -17 -255 -24 -269 -137
-281 -68 -7 -149 7 -210 37 -65 31 -69 49 -55 262 14 216 22 250 67 295 27 27
40 33 62 29 15 -4 49 -10 76 -15z"/>
<path d="M2956 2599 c-12 -53 -26 -306 -18 -334 12 -45 65 -67 176 -72 50 -2
97 0 105 5 17 12 28 87 37 252 9 166 12 163 -166 168 -129 4 -129 4 -134 -19z
m179 -42 c7 -26 -9 -77 -24 -77 -6 0 -22 11 -37 23 -31 27 -28 63 5 52 12 -3
21 0 25 10 8 22 25 18 31 -8z m60 -127 c4 -6 -28 -10 -89 -10 -57 0 -96 4 -96
10 0 6 36 10 89 10 50 0 93 -4 96 -10z m-62 -65 c31 -4 57 -11 57 -16 0 -5
-19 -7 -42 -4 -24 2 -69 7 -100 10 -32 4 -58 11 -58 16 0 6 18 8 43 5 23 -3
68 -8 100 -11z m42 -86 c14 -5 5 -8 -30 -8 -68 -1 -155 10 -155 19 0 10 157 0
185 -11z"/>
<path d="M3108 2548 c-5 -11 -13 -15 -23 -12 -22 9 -18 -14 5 -26 23 -12 35 4
28 37 -3 17 -4 17 -10 1z"/>
<path d="M473 3090 c-12 -5 -24 -18 -28 -29 -7 -23 -20 -27 -30 -11 -14 22
-61 9 -107 -31 -60 -51 -150 -186 -176 -263 -22 -66 -21 -79 11 -93 l22 -10
-24 -8 c-22 -7 -23 -11 -18 -65 10 -114 106 -234 235 -292 55 -25 80 -31 143
-31 65 -1 85 4 135 29 55 27 59 31 57 62 -1 32 0 33 29 27 25 -6 35 -1 67 33
75 79 118 218 107 351 -8 97 -22 125 -64 129 -37 4 -36 3 -20 37 10 23 8 29
-23 61 -19 20 -50 44 -69 54 -83 42 -207 67 -247 50z m211 -63 c39 -20 82 -47
94 -60 23 -24 23 -26 7 -56 -20 -40 -13 -51 30 -44 30 5 36 2 43 -18 44 -117
5 -328 -76 -420 -38 -42 -38 -42 -75 -28 -45 16 -53 9 -38 -32 14 -41 5 -53
-62 -76 -126 -42 -259 -4 -367 106 -90 92 -128 217 -71 231 36 8 36 27 2 45
-27 13 -30 20 -25 43 21 92 121 247 192 296 40 27 43 28 66 12 34 -22 38 -21
59 15 17 31 18 32 83 26 48 -3 86 -15 138 -40z"/>
<path d="M330 2837 c-46 -16 -68 -56 -52 -91 29 -64 140 -88 187 -41 14 13 25
31 25 40 0 35 -30 73 -70 89 -47 19 -44 18 -90 3z m91 -22 c56 -30 58 -97 4
-111 -92 -23 -182 70 -107 110 35 20 66 20 103 1z"/>
<path d="M620 2707 c-57 -29 -56 -96 4 -141 47 -36 95 -42 129 -16 52 41 25
125 -49 156 -41 17 -52 17 -84 1z m106 -41 c41 -41 45 -78 9 -102 -34 -22 -77
-10 -115 32 -36 41 -38 67 -8 88 37 26 76 20 114 -18z"/>
<path d="M412 2579 c2 -15 18 -27 53 -40 63 -24 85 -24 85 -1 0 38 -39 62
-100 62 -36 0 -41 -3 -38 -21z m108 -16 c15 -10 20 -18 12 -21 -18 -6 -102 29
-96 40 8 12 51 2 84 -19z"/>
<path d="M310 2520 c-26 -48 36 -134 115 -160 96 -32 211 76 125 116 -47 22
-155 56 -192 61 -30 4 -38 1 -48 -17z m112 -20 c24 -11 62 -24 86 -30 55 -14
64 -36 28 -67 -61 -53 -185 -9 -210 74 -15 47 24 56 96 23z"/>
<path d="M3525 3043 c-14 -21 -25 -43 -25 -50 0 -18 -7 -16 -44 12 -44 33 -90
33 -112 0 -23 -36 -12 -88 33 -153 37 -54 180 -175 195 -166 4 3 8 20 8 37 0
18 11 79 25 137 29 123 31 167 9 198 -24 34 -59 28 -89 -15z m66 -15 c15 -28
-19 -318 -37 -318 -22 0 -153 131 -174 175 -26 53 -24 108 3 113 10 2 35 -8
56 -22 47 -33 65 -33 80 2 19 41 40 72 51 72 5 0 14 -10 21 -22z"/>
<path d="M2741 3005 c-8 -31 -22 -53 -45 -72 l-35 -27 29 -18 c21 -12 33 -32
44 -69 9 -29 16 -60 16 -68 1 -28 17 9 25 57 4 23 18 56 32 73 l25 29 -25 20
c-18 14 -28 34 -33 65 -9 61 -19 64 -33 10z m41 -84 c12 -14 11 -22 -8 -58
-21 -41 -22 -42 -28 -18 -4 14 -16 35 -27 46 l-20 20 26 30 c14 17 25 36 26
42 0 7 5 -1 9 -17 5 -15 15 -36 22 -45z"/>
<path d="M3870 3043 c-8 -3 -21 -10 -28 -16 -7 -6 -27 -12 -43 -14 -47 -5 -69
-21 -89 -67 -33 -73 -34 -114 -6 -187 63 -167 42 -276 -104 -519 -83 -140
-106 -204 -95 -269 12 -72 79 -128 136 -114 101 25 144 124 199 463 38 239 43
254 87 287 89 68 112 95 137 158 34 86 34 126 -2 162 -16 15 -31 40 -35 54
-10 38 -113 79 -157 62z m111 -39 c20 -10 29 -22 29 -39 0 -34 -20 -74 -41
-80 -20 -7 -97 11 -116 27 -19 15 -16 78 4 101 20 21 73 18 124 -9z m-161 -18
c0 -7 -9 -16 -19 -19 -26 -7 -52 -49 -58 -96 -5 -35 -2 -44 23 -69 34 -33 129
-72 179 -72 42 0 68 26 85 85 9 32 9 48 1 64 -15 28 -5 47 16 29 22 -18 12
-94 -21 -161 -20 -42 -40 -64 -84 -93 -86 -59 -89 -68 -147 -419 -36 -224 -61
-289 -127 -338 -40 -30 -94 -15 -120 33 -32 59 -20 134 38 233 118 201 136
236 156 302 31 100 29 200 -5 286 -15 36 -27 83 -27 105 1 51 33 122 62 134
33 13 48 12 48 -4z m0 -56 c0 -41 108 -83 162 -62 26 9 28 8 28 -14 0 -14 -7
-40 -14 -59 -13 -31 -19 -35 -53 -35 -49 0 -128 29 -160 58 -26 24 -27 44 -4
105 12 31 41 37 41 7z"/>
<path d="M4095 2519 c-41 -86 -42 -104 -13 -184 l21 -61 -26 -58 c-31 -67 -34
-102 -11 -134 22 -31 37 -28 29 7 -5 22 1 43 24 83 38 67 39 111 6 180 -30 63
-31 97 -5 173 11 32 18 60 15 63 -2 3 -20 -28 -40 -69z"/>
<path d="M3991 2464 c-32 -41 -36 -85 -12 -132 27 -54 27 -58 -14 -119 -50
-75 -51 -88 -10 -165 19 -37 35 -69 35 -72 0 -3 -18 -18 -40 -32 -22 -15 -37
-30 -34 -35 3 -5 25 -9 50 -9 34 0 51 6 69 25 39 38 32 66 -37 144 -21 24 -38
47 -38 51 0 4 18 30 40 56 56 68 60 102 21 165 -37 59 -38 71 -10 115 24 40
10 46 -20 8z"/>
<path d="M3445 2466 c-27 -19 -16 -104 19 -151 l27 -35 44 36 c53 45 78 89 73
129 -4 38 -31 44 -69 16 -16 -12 -30 -17 -34 -11 -13 22 -42 29 -60 16z m47
-41 c11 -24 38 -35 38 -16 0 5 11 16 25 25 24 16 25 16 25 -7 0 -24 -73 -117
-91 -117 -15 0 -39 57 -39 93 0 53 22 65 42 22z"/>
<path d="M2667 2119 c-12 -33 -28 -56 -47 -68 l-29 -17 34 -27 c27 -21 36 -39
48 -89 14 -65 19 -63 32 14 3 21 17 51 32 68 l25 31 -25 23 c-15 14 -28 40
-32 64 -4 23 -10 44 -14 46 -4 3 -15 -18 -24 -45z m54 -80 c9 -5 6 -14 -10
-34 -11 -15 -21 -35 -21 -44 -1 -9 -7 -2 -14 14 -7 17 -21 36 -30 44 -16 13
-15 15 3 35 10 12 22 32 26 45 7 23 8 22 21 -14 7 -21 18 -41 25 -46z"/>
<path d="M215 2115 c-29 -28 -31 -59 -13 -166 10 -62 9 -74 -5 -99 -20 -34
-22 -95 -3 -131 28 -54 27 -75 -4 -114 -39 -49 -44 -82 -37 -239 6 -163 14
-181 79 -197 68 -16 182 -7 241 19 47 21 47 21 47 69 0 65 -28 290 -41 331 -8
23 -23 39 -50 53 -43 21 -62 54 -48 81 13 24 11 99 -4 128 -7 14 -21 27 -32
29 -30 5 -35 19 -35 96 0 85 -15 141 -40 155 -26 14 -28 13 -55 -15z m53 -53
c2 -12 -1 -22 -7 -22 -6 0 -11 4 -11 9 0 5 -3 17 -7 27 -4 12 -2 15 8 12 8 -2
15 -14 17 -26z m78 -233 c3 -6 2 -15 -4 -21 -7 -7 -14 -3 -21 11 -10 17 -9 21
3 21 8 0 18 -5 22 -11z m14 -160 c4 -15 22 -33 47 -47 37 -20 43 -28 52 -75
19 -91 42 -290 36 -308 -10 -30 -64 -44 -172 -44 -79 0 -106 4 -118 15 -11 12
-18 54 -26 155 -12 161 -9 189 28 227 19 20 27 39 27 63 0 34 0 34 51 38 68 4
69 4 75 -24z"/>
<path d="M268 1543 c-10 -2 -18 -8 -18 -13 0 -5 -10 -18 -21 -29 -19 -18 -21
-27 -15 -83 13 -127 26 -168 52 -179 57 -21 184 1 197 35 3 7 -1 61 -9 121
-12 93 -18 111 -40 131 -20 19 -35 24 -77 23 -29 -1 -60 -3 -69 -6z m117 -83
c0 -17 -5 -24 -16 -22 -12 2 -15 -5 -11 -28 5 -33 -24 -120 -39 -120 -12 0
-11 11 6 40 8 14 14 42 15 63 0 30 -3 37 -20 37 -12 0 -20 -7 -20 -16 0 -14 3
-14 15 -4 12 10 15 10 15 -3 0 -20 -14 -29 -35 -21 -22 9 -15 47 12 59 12 5
24 18 27 28 7 30 51 19 51 -13z"/>
<path d="M345 1460 c-3 -5 1 -10 9 -10 9 0 16 5 16 10 0 6 -4 10 -9 10 -6 0
-13 -4 -16 -10z"/>
<path d="M515 2106 c-48 -22 -122 -92 -111 -104 4 -3 23 4 44 16 20 11 68 28
105 38 73 18 93 38 62 60 -26 19 -42 17 -100 -10z"/>
<path d="M1301 2074 c-13 -48 -46 -94 -67 -94 -23 0 -16 -14 15 -32 29 -16 36
-31 57 -123 7 -29 8 -28 19 20 13 57 27 86 49 105 21 17 20 27 -4 35 -12 4
-24 21 -31 48 -22 83 -25 86 -38 41z m19 -48 c0 -7 9 -25 20 -39 14 -17 17
-28 9 -33 -6 -3 -17 -20 -24 -38 l-13 -31 -10 26 c-6 14 -17 33 -26 42 -15 14
-14 19 6 51 24 37 38 45 38 22z"/>
<path d="M460 1973 c-42 -19 -40 -19 75 -32 50 -5 112 -19 138 -30 52 -22 87
-27 87 -12 0 29 -22 60 -53 74 -46 22 -197 22 -247 0z"/>
<path d="M2841 1884 c-27 -31 -48 -69 -63 -114 -16 -51 -28 -71 -46 -80 -21
-9 -24 -16 -19 -45 6 -38 92 -174 115 -183 8 -3 26 2 41 10 19 12 33 13 51 6
33 -13 171 7 230 33 53 24 124 90 151 141 48 94 26 192 -53 228 -56 26 -79 25
-163 -6 -111 -41 -105 -40 -105 -6 0 40 -23 62 -65 62 -27 0 -41 -9 -74 -46z
m109 -3 c5 -11 10 -28 10 -39 0 -32 24 -33 117 -1 98 33 136 32 179 -5 20 -17
28 -34 31 -72 14 -141 -134 -264 -318 -264 -56 0 -59 1 -96 45 -21 25 -53 71
-70 103 l-32 58 28 60 c53 113 123 166 151 115z"/>
<path d="M3174 1818 c-4 -6 0 -16 9 -23 10 -7 17 -17 17 -22 0 -6 7 -16 15
-23 8 -7 15 -21 15 -31 0 -11 7 -19 16 -19 13 0 14 3 5 13 -6 8 -9 16 -6 19 3
3 -1 11 -10 18 -8 7 -15 19 -15 26 0 21 -38 56 -46 42z"/>
<path d="M3120 1796 c0 -8 4 -17 9 -21 13 -7 41 -64 41 -81 0 -7 9 -18 20 -24
20 -11 30 3 10 15 -5 3 -10 15 -10 26 0 10 -4 19 -10 19 -5 0 -10 9 -10 20 0
11 -7 23 -15 26 -8 4 -15 12 -15 20 0 8 -4 14 -10 14 -5 0 -10 -6 -10 -14z"/>
<path d="M3068 1788 c-5 -12 8 -40 51 -112 17 -31 41 -46 41 -27 0 6 -4 11
-10 11 -5 0 -10 9 -10 19 0 11 -5 23 -11 26 -5 4 -15 17 -20 28 -23 50 -37 69
-41 55z"/>
<path d="M450 1880 c0 -5 4 -10 9 -10 5 0 38 -20 74 -45 86 -59 102 -59 76 -1
-7 14 -31 34 -55 46 -46 21 -104 27 -104 10z"/>
<path d="M882 1863 c-7 -2 -19 -18 -28 -35 -23 -44 -4 -87 64 -148 31 -27 59
-50 64 -50 14 0 27 -36 21 -58 -3 -15 -13 -22 -29 -22 -17 0 -44 -21 -89 -67
-77 -80 -145 -205 -152 -279 -2 -27 -12 -64 -21 -82 -13 -26 -14 -36 -5 -51
10 -15 9 -22 -6 -35 -17 -15 -23 -15 -88 0 -81 20 -115 14 -131 -21 -16 -34
-15 -38 8 -66 98 -119 151 -159 208 -159 15 0 32 -4 38 -9 5 -6 29 -7 52 -4
33 4 46 12 54 29 15 33 4 63 -46 121 -45 54 -53 93 -17 93 19 0 41 19 41 35 0
6 26 38 58 70 63 66 124 172 143 250 6 28 18 62 25 77 8 15 11 34 8 42 -8 22
13 46 40 46 11 0 59 -18 106 -40 96 -45 138 -50 165 -20 22 25 24 83 3 108 -8
9 -23 39 -32 65 -24 63 -98 135 -182 177 -58 29 -77 33 -163 35 -53 2 -102 1
-109 -2z m61 -90 c36 -49 130 -127 225 -187 47 -30 154 -60 183 -53 23 6 25
-10 2 -35 -24 -27 -61 -22 -157 22 -98 46 -114 48 -148 20 -14 -10 -28 -17
-30 -14 -3 3 -3 24 -1 48 5 44 5 44 -56 92 -63 49 -101 97 -101 129 0 26 32
61 40 43 3 -7 22 -36 43 -65z m198 35 c107 -53 203 -171 182 -224 -18 -47
-172 25 -302 142 -67 60 -80 83 -55 101 32 24 105 16 175 -19z m-190 -324 c7
-8 25 -22 40 -29 27 -15 27 -15 14 -63 -19 -73 -83 -188 -138 -248 l-48 -53
-34 16 c-19 9 -36 22 -39 29 -7 18 20 118 49 182 25 54 120 182 135 182 4 0
13 -7 21 -16z m-343 -465 c40 -15 100 -11 110 7 14 25 29 9 24 -26 -3 -25 4
-40 42 -86 47 -58 57 -92 31 -114 -12 -10 -16 -9 -22 6 -3 11 -12 26 -19 34
-8 8 -27 31 -44 51 -42 52 -92 73 -170 74 -58 1 -65 4 -68 22 -2 13 6 27 19
37 22 15 44 14 97 -5z m37 -88 c43 -19 95 -72 95 -96 0 -8 -9 -19 -19 -25 -54
-28 -186 83 -150 126 15 18 26 17 74 -5z"/>
<path d="M3836 1750 c-95 -15 -179 -39 -206 -59 -38 -28 -36 -72 9 -239 26
-93 44 -185 50 -252 5 -58 14 -118 21 -135 6 -16 25 -79 41 -138 31 -114 49
-159 79 -192 10 -11 23 -47 29 -79 6 -33 17 -63 24 -68 18 -12 109 -10 147 3
l32 12 -4 71 c-3 49 0 80 9 99 18 35 37 304 35 472 -1 66 5 186 13 267 23 227
16 239 -127 244 -51 1 -120 -1 -152 -6z m245 -30 c12 -7 19 -21 19 -38 l0 -27
-128 -1 c-103 -2 -145 -7 -222 -28 -126 -35 -124 -35 -128 -8 -7 45 26 65 153
93 89 19 276 25 306 9z m13 -167 c-5 -49 -9 -164 -10 -258 -2 -212 -20 -489
-34 -515 -14 -25 -77 -42 -148 -38 l-57 3 -27 50 c-14 27 -36 92 -48 144 -13
53 -29 114 -37 136 -8 22 -18 87 -23 145 -6 66 -22 151 -45 229 -26 95 -32
127 -23 132 41 25 236 56 367 58 l94 1 -9 -87z m-161 -907 c12 -9 14 -16 7
-21 -12 -7 -40 11 -40 26 0 13 12 11 33 -5z"/>
<path d="M3855 1558 c-95 -11 -142 -25 -149 -44 -3 -9 3 -46 15 -83 11 -36 24
-118 30 -181 8 -102 58 -342 74 -359 4 -3 41 -6 84 -6 54 0 84 5 102 16 l25
17 -1 312 c0 264 -3 313 -15 320 -26 13 -92 16 -165 8z m130 -17 l30 -6 3
-135 c5 -217 5 -239 2 -358 -2 -112 -3 -114 -28 -123 -33 -13 -141 -15 -151
-3 -16 18 -61 241 -71 349 -5 61 -18 137 -29 170 -13 40 -16 64 -9 72 8 10 32
17 133 37 30 6 86 4 120 -3z"/>
<path d="M660 1580 c0 -37 -28 -90 -54 -102 -32 -14 -32 -21 -2 -38 28 -14 56
-75 56 -120 0 -49 18 -34 25 21 5 35 16 61 37 84 l29 34 -25 16 c-18 12 -28
32 -36 71 -11 53 -30 74 -30 34z m43 -109 c14 -11 13 -16 -6 -46 -25 -39 -33
-42 -42 -16 -3 10 -14 26 -24 35 -18 17 -18 18 5 41 13 13 24 32 25 42 0 12 5
8 14 -13 8 -17 20 -36 28 -43z"/>
<path d="M3457 1533 c-15 -15 -5 -72 38 -201 25 -75 44 -143 43 -151 -2 -9
-29 20 -65 70 -105 145 -177 197 -213 153 -24 -27 -14 -74 33 -166 29 -55 41
-88 32 -84 -46 18 -47 16 -15 -18 37 -39 65 -44 83 -14 9 13 2 36 -30 105 -22
48 -44 97 -47 107 -7 19 -6 19 14 1 11 -10 50 -61 87 -112 93 -132 149 -166
175 -107 13 27 6 51 -78 282 -20 56 -34 105 -31 109 4 3 18 -2 33 -11 36 -24
42 -12 9 18 -27 25 -55 33 -68 19z"/>
<path d="M2938 1294 c-16 -8 -28 -21 -28 -29 0 -25 72 -135 89 -135 20 1 51
24 51 39 0 14 -17 15 -25 1 -11 -17 -33 -11 -40 11 -5 15 -2 25 9 31 24 13 9
29 -20 22 -34 -9 -46 24 -16 44 21 14 30 32 15 32 -5 -1 -20 -8 -35 -16z"/>
<path d="M1200 1235 c-12 -14 -10 -48 6 -102 10 -34 -33 -32 -48 2 -13 29 -35
28 -30 -1 6 -31 33 -54 63 -54 40 0 52 27 37 84 -14 51 -3 72 19 39 19 -28 33
-29 33 -4 0 42 -55 67 -80 36z"/>
<path d="M2860 1238 c1 -7 7 -24 15 -38 26 -45 17 -53 -24 -21 -69 55 -77 40
-30 -50 37 -69 73 -85 38 -17 l-21 42 23 -17 c38 -27 68 -41 76 -34 9 10 -49
139 -65 145 -6 2 -12 -2 -12 -10z"/>
<path d="M2740 1180 c0 -19 60 -130 70 -130 16 0 12 17 -20 80 -27 54 -50 77
-50 50z"/>
<path d="M1269 1109 c-27 -48 -38 -74 -31 -81 7 -7 16 -2 27 16 19 29 35 34
35 12 0 -8 5 -27 10 -42 16 -40 31 -17 20 29 -8 37 -7 40 26 59 19 11 34 24
34 29 0 14 -28 11 -55 -7 -14 -9 -25 -12 -25 -6 0 6 5 14 10 17 13 8 13 45 0
45 -5 0 -28 -32 -51 -71z"/>
<path d="M2672 1160 c-44 -20 -57 -43 -21 -38 17 2 25 -6 41 -47 11 -27 24
-54 29 -59 20 -21 20 6 0 60 -20 52 -20 58 -6 74 24 27 5 31 -43 10z"/>
<path d="M1400 1060 c-31 -62 -37 -90 -19 -90 10 0 69 119 69 140 0 27 -23 4
-50 -50z"/>
<path d="M2589 1115 c-1 -6 0 -14 1 -20 16 -66 17 -81 8 -104 l-10 -26 -19 23
c-10 13 -24 42 -30 63 -13 43 -29 52 -29 17 1 -35 36 -105 59 -117 17 -9 24
-8 42 10 18 18 21 30 17 76 -3 32 -12 61 -21 71 -10 9 -18 12 -18 7z"/>
<path d="M3171 1063 c-49 -54 -58 -84 -42 -128 8 -24 8 -40 1 -61 -9 -24 -7
-37 20 -89 27 -54 30 -66 22 -102 -14 -62 1 -121 63 -242 67 -132 142 -240
192 -278 87 -66 244 -7 351 132 85 112 59 203 -120 426 -86 107 -148 149 -220
149 -27 0 -38 4 -38 15 0 8 -17 32 -38 55 -29 30 -47 40 -70 40 -26 0 -33 5
-38 26 -4 14 -2 30 5 37 6 6 11 24 11 39 0 24 -4 28 -29 28 -22 0 -39 -11 -70
-47z m79 13 c0 -8 -5 -18 -11 -22 -7 -4 -9 -23 -6 -49 6 -41 5 -44 -33 -69
-38 -25 -40 -25 -50 -7 -19 36 -11 67 31 115 41 46 69 59 69 32z m60 -146 c8
-5 12 -12 8 -15 -9 -9 -59 6 -52 16 7 12 25 11 44 -1z m194 -90 c12 -4 37 -20
55 -35 l32 -28 -23 -24 c-30 -33 -177 -131 -270 -182 l-78 -43 -11 29 c-17 42
-23 117 -11 140 6 11 36 32 66 47 31 15 77 47 103 72 50 46 71 50 137 24z
m197 -218 c38 -57 69 -110 69 -117 0 -16 -91 -101 -153 -144 -61 -41 -199
-111 -221 -111 -9 0 -35 29 -60 68 -47 71 -110 191 -104 196 1 2 32 18 68 36
75 37 193 117 253 171 39 35 43 36 60 21 10 -9 50 -63 88 -120z m94 -173 c17
-75 -37 -163 -143 -235 -80 -55 -130 -70 -174 -51 -42 18 -89 67 -65 67 49 0
286 153 338 219 30 38 36 38 44 0z"/>
<path d="M1472 1068 c-5 -7 -20 -38 -31 -68 -28 -72 -10 -93 21 -24 l22 49 14
-58 c19 -76 39 -73 69 8 12 33 22 68 22 78 2 35 -24 11 -40 -39 -17 -51 -21
-49 -36 20 -9 42 -24 54 -41 34z"/>
<path d="M219 1063 c-9 -67 23 -164 67 -203 67 -59 72 -33 11 65 -24 39 -49
87 -56 108 -12 35 -20 46 -22 30z"/>
<path d="M2413 1059 c-27 -10 -43 -39 -43 -79 0 -88 84 -120 116 -44 28 68
-17 145 -73 123z m48 -55 c17 -47 -15 -99 -46 -74 -15 12 -21 81 -8 93 15 16
44 5 54 -19z"/>
<path d="M331 998 c-1 -57 13 -98 34 -98 18 0 19 -8 -10 75 l-24 70 0 -47z"/>
<path d="M2241 1026 c-12 -14 -4 -68 20 -143 14 -45 33 -43 26 2 -6 38 0 39
40 2 36 -32 49 -9 14 27 -22 23 -28 35 -21 46 5 8 10 25 10 37 0 37 -65 58
-89 29z m59 -35 c0 -25 -20 -38 -31 -20 -15 23 -10 39 11 39 13 0 20 -7 20
-19z"/>
<path d="M1616 1000 c-14 -17 -26 -40 -26 -49 0 -29 39 -71 66 -71 31 0 31 18
-1 30 -34 13 -41 35 -21 65 12 18 25 25 47 25 40 0 33 24 -8 28 -24 2 -36 -4
-57 -28z"/>
<path d="M1865 1004 c-20 -20 -18 -165 3 -172 8 -2 12 8 12 30 l1 33 28 -35
c35 -42 52 -33 27 14 -14 26 -16 38 -7 54 17 32 13 59 -11 76 -28 20 -33 20
-53 0z m43 -50 c-5 -28 -28 -29 -28 -1 0 13 3 27 7 31 10 10 25 -10 21 -30z"/>
<path d="M1981 992 c-13 -24 -2 -139 15 -153 17 -14 76 -8 82 9 2 8 -8 12 -32
12 -30 0 -36 4 -36 21 0 12 8 23 20 26 28 7 26 35 -2 31 -17 -2 -24 3 -26 19
-3 19 2 22 34 25 56 5 56 28 0 28 -33 0 -48 -5 -55 -18z"/>
<path d="M1732 941 c-17 -32 -32 -64 -32 -70 0 -19 28 -12 35 9 10 32 49 23
56 -13 8 -36 24 -11 23 35 -4 116 -32 130 -82 39z m48 -7 c0 -8 -5 -12 -10 -9
-6 4 -8 11 -5 16 9 14 15 11 15 -7z"/>
<path d="M1210 839 c-34 -30 -37 -31 -113 -25 -108 9 -142 -13 -172 -111 -10
-35 2 -27 24 15 30 59 56 68 135 48 59 -14 70 -15 101 -2 33 14 75 66 75 94 0
19 -12 14 -50 -19z"/>
<path d="M2475 811 c4 -21 -1 -43 -20 -80 -18 -34 -25 -59 -21 -75 3 -14 2
-28 -4 -31 -5 -3 -10 -15 -10 -27 0 -11 -16 -38 -35 -59 -32 -36 -35 -44 -35
-100 0 -33 7 -107 16 -164 20 -128 31 -141 130 -157 122 -19 412 13 518 57 46
19 51 40 42 172 -11 175 -19 202 -71 249 -27 24 -45 49 -45 62 0 13 -6 22 -15
22 -8 0 -15 6 -15 14 0 8 -15 26 -32 41 -33 28 -33 28 -157 22 -123 -5 -125
-5 -144 19 -16 21 -85 64 -102 64 -4 0 -4 -13 0 -29z m74 -30 c17 -16 31 -37
31 -46 0 -13 5 -15 18 -10 32 15 185 25 226 15 23 -5 49 -19 60 -32 18 -22 18
-23 0 -25 -102 -14 -381 -43 -404 -43 -25 0 -30 4 -30 25 0 14 12 48 26 75 14
27 23 54 19 60 -13 22 24 9 54 -19z m371 -135 c0 -16 -15 -18 -245 -41 -216
-21 -238 -21 -243 -7 -6 18 8 21 193 41 218 24 295 26 295 7z m45 -62 c41 -31
51 -60 65 -186 15 -147 14 -185 -10 -198 -78 -42 -428 -74 -543 -50 -68 14
-67 13 -91 149 -25 144 -22 179 17 223 l32 37 130 11 c72 7 177 17 235 25 58
7 111 13 118 14 7 0 29 -11 47 -25z"/>
<path d="M2635 524 c-160 -39 -239 -168 -160 -263 38 -45 96 -63 200 -63 142
0 244 38 285 104 55 91 -7 188 -143 224 -64 17 -105 17 -182 -2z m230 -38
c129 -64 125 -181 -10 -235 -74 -29 -200 -39 -274 -21 -73 17 -111 57 -111
116 0 54 18 83 71 118 92 61 225 70 324 22z"/>
<path d="M106 769 c-44 -52 -36 -70 60 -145 85 -67 87 -68 114 -52 31 18 55 6
55 -28 0 -13 26 -42 70 -81 39 -33 131 -118 205 -188 135 -128 176 -157 212
-147 29 7 110 104 147 176 37 72 51 147 31 171 -15 18 -165 77 -398 157 -151
51 -178 58 -198 47 -27 -14 -56 -6 -48 14 3 8 -1 18 -8 24 -20 15 -183 83
-201 83 -8 0 -27 -14 -41 -31z m589 -194 c127 -48 231 -89 233 -90 1 -1 -7
-31 -18 -66 -21 -70 -52 -120 -117 -194 l-43 -48 -42 38 c-24 21 -90 84 -148
139 -58 56 -128 120 -156 144 -36 30 -50 49 -47 61 3 11 -3 24 -16 33 -18 13
-19 18 -8 41 9 20 17 25 34 21 12 -3 30 -1 40 5 25 15 28 14 288 -84z m287
-157 c-6 -80 -133 -268 -181 -268 -33 0 -30 13 14 62 51 57 112 173 121 230 6
37 8 38 28 24 15 -10 20 -23 18 -48z"/>
<path d="M554 559 c-30 -15 -57 -66 -50 -94 14 -56 195 -182 239 -166 33 12
67 68 67 112 0 45 -32 76 -124 119 -76 36 -105 42 -132 29z m131 -52 c107 -52
126 -87 85 -154 -26 -44 -52 -42 -126 5 -72 47 -124 99 -124 124 0 11 11 30
25 44 29 29 49 26 140 -19z"/>
<path d="M1452 788 c-17 -22 -24 -59 -13 -72 21 -25 -19 -78 -80 -108 -31 -14
-66 -39 -78 -54 -31 -39 -60 -144 -73 -260 -11 -92 -10 -104 6 -128 38 -59
171 -109 276 -104 54 3 66 7 82 28 25 35 74 182 89 272 15 93 8 134 -36 190
-29 36 -34 50 -29 75 4 19 15 35 30 42 27 12 42 56 27 80 -22 35 -179 65 -201
39z m148 -58 c8 -5 11 -12 7 -16 -4 -4 -15 0 -24 9 -18 18 -8 23 17 7z m-28
-107 c-3 -31 3 -46 27 -77 46 -57 53 -94 35 -193 -26 -153 -71 -259 -114 -270
-41 -10 -149 14 -219 49 l-66 33 1 95 c1 98 21 198 53 260 12 25 35 45 80 69
50 26 67 42 79 70 l16 38 56 -18 55 -17 -3 -39z"/>
<path d="M1346 485 c-24 -25 -66 -174 -66 -230 0 -54 32 -81 129 -111 64 -19
84 -18 108 8 38 41 89 232 73 273 -9 24 -52 48 -128 70 -66 21 -90 19 -116
-10z m164 -29 l55 -22 -1 -55 c-1 -71 -37 -190 -64 -214 -20 -18 -22 -18 -89
3 -96 31 -105 44 -98 134 13 146 41 195 105 183 21 -4 62 -17 92 -29z"/>
<path d="M1216 724 c-34 -24 -44 -26 -90 -19 -100 15 -126 6 -178 -60 -29 -38
-16 -41 22 -5 42 40 74 47 116 26 61 -28 102 -22 146 24 58 62 51 79 -16 34z"/>
<path d="M1916 718 c-10 -24 -11 -39 -3 -62 14 -41 22 -244 8 -231 -18 18 -51
115 -51 150 0 46 -15 82 -40 95 -30 16 -50 -3 -50 -48 0 -27 8 -42 35 -67 22
-21 47 -64 70 -118 43 -104 47 -174 13 -238 -27 -52 -17 -92 25 -97 40 -5 54
37 32 95 -9 23 -15 53 -13 65 3 20 6 18 22 -17 10 -22 19 -61 20 -87 2 -56 20
-80 55 -76 21 2 27 9 29 36 3 27 -3 39 -31 65 -20 19 -45 60 -61 102 -27 68
-28 74 -21 195 4 72 13 133 20 145 36 57 25 125 -21 125 -19 0 -28 -8 -38 -32z
m58 -32 c0 -57 -19 -80 -40 -52 -18 26 -18 56 2 84 24 34 39 21 38 -32z m-129
-56 c17 -33 20 -66 5 -75 -15 -9 -60 41 -60 68 0 46 32 51 55 7z m99 -455 c9
-35 -10 -70 -30 -54 -17 14 -18 33 -4 60 14 26 27 24 34 -6z m106 -51 c0 -30
-15 -38 -34 -18 -16 16 -22 55 -9 67 11 12 43 -25 43 -49z"/>
<path d="M2117 712 c-27 -29 -17 -102 15 -123 10 -6 47 -276 48 -354 1 -27 -2
-69 -5 -91 -6 -36 -4 -44 16 -57 51 -37 82 41 40 101 -15 20 -24 66 -37 182
-20 166 -21 201 -9 267 6 32 4 49 -9 68 -20 30 -37 32 -59 7z m48 -57 c0 -57
-21 -69 -42 -23 -17 34 -1 81 25 76 13 -3 17 -14 17 -53z m64 -506 c8 -23 8
-36 0 -45 -17 -21 -39 -5 -39 30 0 55 22 63 39 15z"/>
<path d="M3977 514 c-4 -4 -7 -76 -7 -161 0 -160 12 -223 44 -223 8 0 20 16
26 36 10 29 8 57 -10 161 -24 136 -41 198 -53 187z"/>
<path d="M3905 498 c-22 -72 -45 -207 -40 -239 16 -92 46 -13 52 139 5 99 0
137 -12 100z"/>
<path d="M4060 485 c0 -29 35 -163 60 -232 18 -49 30 -40 30 23 0 55 -41 175
-75 220 -14 18 -14 17 -15 -11z"/>
<path d="M110 462 c0 -28 27 -49 43 -33 8 8 9 16 1 29 -16 25 -44 28 -44 4z"/>
<path d="M213 404 c-13 -33 35 -70 59 -46 6 6 8 22 4 36 -5 19 -13 26 -32 26
-14 0 -27 -7 -31 -16z"/>
<path d="M83 334 c-8 -22 9 -48 34 -52 25 -4 33 15 22 46 -10 26 -47 30 -56 6z"/>
<path d="M330 301 c0 -26 29 -54 47 -47 8 3 17 6 19 6 9 0 3 37 -8 48 -20 20
-58 15 -58 -7z"/>
<path d="M201 276 c-26 -32 31 -86 69 -66 26 14 25 26 -5 55 -27 28 -47 31
-64 11z"/>
<path d="M350 190 c0 -21 27 -40 59 -40 31 0 36 21 10 41 -33 25 -69 25 -69
-1z"/>
<path d="M150 161 c0 -5 12 -19 27 -31 21 -16 37 -20 62 -16 46 7 50 14 22 37
-24 20 -111 27 -111 10z"/>
</g>
</svg>
